<svg xmlns="http://www.w3.org/2000/svg" viewBox="0 0 120 120" role="img" aria-label="AI role avatar placeholder">
  <defs>
    <linearGradient id="bg" x1="16" y1="12" x2="104" y2="108" gradientUnits="userSpaceOnUse">
      <stop stop-color="#e6f4ff"/>
      <stop offset="0.52" stop-color="#f7fbff"/>
      <stop offset="1" stop-color="#d8e6f8"/>
    </linearGradient>
    <linearGradient id="hair" x1="30" y1="14" x2="92" y2="94" gradientUnits="userSpaceOnUse">
      <stop stop-color="#293346"/>
      <stop offset="1" stop-color="#4f5f7a"/>
    </linearGradient>
  </defs>
  <rect width="120" height="120" rx="60" fill="url(#bg)"/>
  <circle cx="60" cy="62" r="35" fill="#f5d7c8"/>
  <path d="M28 61c0-27 16-44 34-44 20 0 34 17 34 44 0 12-4 24-8 32-6-8-12-21-12-43-9 13-24 20-48 23v-12z" fill="url(#hair)"/>
  <path d="M39 52c5-14 18-23 36-27 9 6 16 18 17 35-21-2-40-7-53-8z" fill="#36445c" opacity=".75"/>
  <circle cx="49" cy="66" r="3.5" fill="#253044"/>
  <circle cx="72" cy="66" r="3.5" fill="#253044"/>
  <path d="M54 81c4 3 9 3 13 0" fill="none" stroke="#9d5f5f" stroke-width="3" stroke-linecap="round"/>
  <path d="M25 93c9-13 21-20 36-20s27 7 36 20c-10 13-22 20-36 20s-26-7-36-20z" fill="#586b91"/>
  <path d="M48 76l13 15 13-15" fill="none" stroke="#eef6ff" stroke-width="5" stroke-linecap="round" stroke-linejoin="round"/>
</svg>
